<?xml version="1.0" encoding="UTF-8"?>
<!DOCTYPE svg PUBLIC "-//W3C//DTD SVG 1.1//EN" "http://www.w3.org/Graphics/SVG/1.1/DTD/svg11.dtd">
<!-- Creator: CorelDRAW -->
<svg xmlns="http://www.w3.org/2000/svg" xml:space="preserve" width="1731px" height="237px" version="1.1" shape-rendering="geometricPrecision" text-rendering="geometricPrecision" image-rendering="optimizeQuality" fill-rule="evenodd" clip-rule="evenodd"
viewBox="0 0 1709.31 233.89"
 xmlns:xlink="http://www.w3.org/1999/xlink"
 xmlns:xodm="http://www.corel.com/coreldraw/odm/2003">
 <g id="Camada_x0020_1">
  <metadata id="CorelCorpID_0Corel-Layer"/>
  <path fill="#FEFEFE" fill-rule="nonzero" d="M287.19 101.41c-11.28,-12.04 -29.08,-16.05 -45.12,-16.05 -25.57,0 -51.14,12.54 -51.14,41.07 0,46.42 63.42,29.87 63.42,49.43 0,6.52 -8.52,8.77 -17.05,8.77 -11.28,0 -19.55,-4.76 -26.57,-13.28l-22.81 25.31c12.03,12.29 30.83,16.55 47.88,16.55 26.07,0 56.15,-9.02 56.15,-40.11 0,-46.42 -63.42,-31.13 -63.42,-49.18 0,-7.22 7.52,-9.98 13.79,-9.98 9.02,0 16.29,3.51 21.81,10.24l23.06 -22.77zm24.57 108.79l37.6 0 0 -121.83 -37.6 0 0 121.83zm-3.01 -160.18c0,12.03 9.77,21.81 21.81,21.81 12.03,0 21.81,-9.78 21.81,-21.81 0,-12.04 -9.78,-21.81 -21.81,-21.81 -12.04,0 -21.81,9.77 -21.81,21.81zm67.68 160.18l37.6 0 0 -60.66c0,-15.8 3.01,-31.09 22.56,-31.09 19.31,0 19.56,18.05 19.56,32.09l0 59.66 37.6 0 0 -67.18c0,-32.59 -7.02,-57.66 -45.12,-57.66 -18.3,0 -30.59,10.03 -35.6,19.56l-0.5 0 0 -16.55 -36.1 0 0 121.83zm220.35 0l34.6 0 0 -61.92c0,-40.61 -11.79,-62.92 -55.66,-62.92 -19.8,0 -39.86,6.52 -53.64,19.56l20.05 20.55c8.02,-9.02 18.3,-14.54 30.59,-14.54 13.03,0 24.06,8.52 24.06,21.81 -31.33,0 -82.47,0.75 -82.47,42.87 0,24.56 20.55,37.6 43.36,37.6 15.3,0 30.34,-5.27 38.61,-18.3l0.5 0 0 15.29zm0 -53.39l0 8.02c0,15.04 -13.79,22.81 -28.58,22.81 -8.27,0 -17.8,-4.26 -17.8,-13.29 0,-16.54 25.57,-17.54 37.11,-17.54l9.27 0zm58.66 53.39l37.6 0 0 -121.83 -37.6 0 0 121.83zm-3.01 -160.18c0,12.03 9.78,21.81 21.81,21.81 12.03,0 21.81,-9.78 21.81,-21.81 0,-12.04 -9.78,-21.81 -21.81,-21.81 -12.03,0 -21.81,9.77 -21.81,21.81zm159.69 51.39c-11.28,-12.04 -29.08,-16.05 -45.13,-16.05 -25.57,0 -51.14,12.54 -51.14,41.07 0,46.42 63.43,29.87 63.43,49.43 0,6.52 -8.53,8.77 -17.05,8.77 -11.28,0 -19.55,-4.76 -26.57,-13.28l-22.81 25.31c12.03,12.29 30.83,16.55 47.88,16.55 26.07,0 56.15,-9.02 56.15,-40.11 0,-46.42 -63.42,-31.13 -63.42,-49.18 0,-7.22 7.52,-9.98 13.78,-9.98 9.03,0 16.3,3.51 21.81,10.24l23.07 -22.77zm24.81 87.23c0,12.79 10.28,23.07 23.07,23.07 12.78,0 23.06,-10.28 23.06,-23.07 0,-12.78 -10.28,-23.06 -23.06,-23.06 -12.79,0 -23.07,10.28 -23.07,23.06zm201.3 -167.95l-37.6 0 0 80.72 -0.5 0c-8.53,-11.79 -23.06,-16.05 -38.61,-16.05 -34.59,0 -55.65,31.09 -55.65,64.93 0,36.85 23.82,62.92 59.91,62.92 17.05,0 31.59,-10.28 37.36,-19.05l0.5 0 0 16.04 34.59 0 0 -189.51zm-34.59 128.6c0,18.3 -11.28,30.83 -30.08,30.83 -18.81,0 -30.09,-12.53 -30.09,-30.83 0,-18.3 11.28,-30.84 30.09,-30.84 18.8,0 30.08,12.54 30.08,30.84zm60.16 0c0,38.85 30.08,63.92 67.69,63.92 37.6,0 67.68,-25.07 67.68,-63.92 0,-38.86 -30.08,-63.93 -67.68,-63.93 -37.61,0 -67.69,25.07 -67.69,63.93zm37.6 0c0,-18.3 11.28,-30.84 30.09,-30.84 18.8,0 30.08,12.54 30.08,30.84 0,18.3 -11.28,30.83 -30.08,30.83 -18.81,0 -30.09,-12.53 -30.09,-30.83zm237.15 -60.92l-37.6 0 0 60.67c0,15.79 -3.01,31.08 -22.56,31.08 -19.31,0 -19.56,-18.05 -19.56,-32.09l0 -59.66 -37.6 0 0 67.18c0,32.59 7.02,57.66 45.12,57.66 18.3,0 30.59,-10.03 35.6,-19.55l0.5 0 0 16.54 36.1 0 0 -121.83zm30.08 121.83l34.59 0 0 -16.04 0.51 0c5.76,8.77 20.3,19.05 37.35,19.05 36.1,0 59.91,-26.07 59.91,-62.92 0,-33.84 -21.06,-64.93 -55.65,-64.93 -15.54,0 -30.08,4.26 -38.61,16.05l-0.5 0 0 -80.72 -37.6 0 0 189.51zm34.59 -60.91c0,-18.3 11.29,-30.84 30.09,-30.84 18.8,0 30.08,12.54 30.08,30.84 0,18.3 -11.28,30.83 -30.08,30.83 -18.8,0 -30.09,-12.53 -30.09,-30.83zm120.33 60.91l37.6 0 0 -189.51 -37.6 0 0 189.51zm153.67 -40.36c-6.27,8.52 -14.54,14.79 -26.82,14.79 -14.54,0 -25.32,-9.27 -28.33,-23.56l87.24 0 0 -11.78c0,-38.86 -22.06,-63.93 -57.16,-63.93 -37.6,0 -67.68,25.07 -67.68,63.93 0,38.85 30.08,63.92 67.68,63.92 19.56,0 39.36,-8.77 51.39,-24.07l-26.32 -19.3zm-55.15 -34.34c1,-11.78 10.03,-23.06 26.57,-23.06 13.54,0 23.32,10.52 23.07,23.06l-49.64 0z"/>
  <path fill="#FF2449" d="M62.07 103.36c0,6.22 -0.22,13.2 -3.9,16.88 -3.79,3.78 -11.35,2.94 -15.85,0.35 -10.64,-6.14 -15.13,-19.3 -18.19,-22.8 -4.87,3.13 -13.11,15.72 -16.09,22.14 -8.79,18.95 -10.87,43.53 -3.75,63.59 6.33,17.84 19.01,32.65 35.54,41.43 26,13.84 58.52,11.52 81.34,-6.27 5.38,-4.19 10.21,-8.77 14.47,-14.34 9.08,-11.89 14.73,-26.24 15.59,-42.31 1.27,-23.54 -10.49,-42.65 -20.45,-56.85 -15.28,-21.8 -37.3,-44.77 -44.65,-70.51 -4.44,-15.55 -2.08,-21.52 -0.68,-34.67l-7.08 8.72c-21.49,31.38 -16.35,59.4 -16.3,94.64z"/>
 </g>
</svg>
