<?xml version="1.0" encoding="UTF-8"?>
<!DOCTYPE svg PUBLIC "-//W3C//DTD SVG 1.1//EN" "http://www.w3.org/Graphics/SVG/1.1/DTD/svg11.dtd">
<!-- Creator: CorelDRAW -->
<svg xmlns="http://www.w3.org/2000/svg" xml:space="preserve" width="152.611mm" height="29.5349mm" version="1.1" style="shape-rendering:geometricPrecision; text-rendering:geometricPrecision; image-rendering:optimizeQuality; fill-rule:evenodd; clip-rule:evenodd"
viewBox="0 0 15246.79 2950.73"
 xmlns:xlink="http://www.w3.org/1999/xlink"
 xmlns:xodm="http://www.corel.com/coreldraw/odm/2003">
 <defs>
  <style type="text/css">
   <![CDATA[
    .fil1 {fill:#FF2449}
    .fil0 {fill:#FEFEFE;fill-rule:nonzero}
   ]]>
  </style>
 </defs>
 <g id="Camada_x0020_1">
  <metadata id="CorelCorpID_0Corel-Layer"/>
  <g id="_1647566061856">
   <path class="fil0" d="M3062.53 1342.2c-96.65,-103.09 -249.14,-137.46 -386.6,-137.46 -219.07,0 -438.14,107.39 -438.14,351.88 0,397.69 543.38,255.94 543.38,423.46 0,55.85 -73.02,75.17 -146.04,75.17 -96.65,0 -167.52,-40.8 -227.67,-113.82l-195.45 216.92c103.09,105.24 264.18,141.76 410.23,141.76 223.37,0 481.1,-77.32 481.1,-343.65 0,-397.69 -543.38,-266.68 -543.38,-421.32 0,-61.92 64.43,-85.55 118.12,-85.55 77.33,0 139.61,30.07 186.86,87.7l197.6 -195.09zm210.48 932.13l322.16 0 0 -1043.81 -322.16 0 0 1043.81zm-25.78 -1372.42c0,103.09 83.76,186.86 186.86,186.86 103.09,0 186.86,-83.76 186.86,-186.86 0,-103.09 -83.76,-186.86 -186.86,-186.86 -103.09,0 -186.86,83.76 -186.86,186.86zm579.9 1372.42l322.16 0 0 -519.75c0,-135.31 25.78,-266.33 193.3,-266.33 165.38,0 167.52,154.65 167.52,274.91l0 511.17 322.17 0 0 -575.6c0,-279.21 -60.13,-493.99 -386.6,-493.99 -156.78,0 -262.02,85.92 -304.98,167.53l-4.3 0 0 -141.76 -309.27 0 0 1043.81zm1887.88 0l296.39 0 0 -530.49c0,-347.94 -100.95,-539.1 -476.8,-539.1 -169.67,0 -341.5,55.85 -459.62,167.53l171.82 176.12c68.73,-77.32 156.78,-124.57 262.02,-124.57 111.69,0 206.19,73.02 206.19,186.86 -268.47,0 -706.62,6.44 -706.62,367.27 0,210.48 176.12,322.17 371.56,322.17 131.02,0 259.89,-45.11 330.76,-156.79l4.3 0 0 131.02zm0 -457.47l0 68.73c0,128.87 -118.13,195.45 -244.85,195.45 -70.87,0 -152.49,-36.52 -152.49,-113.83 0,-141.75 219.08,-150.34 317.87,-150.34l79.47 0zm502.58 457.47l322.16 0 0 -1043.81 -322.16 0 0 1043.81zm-25.78 -1372.42c0,103.09 83.76,186.86 186.86,186.86 103.09,0 186.86,-83.76 186.86,-186.86 0,-103.09 -83.76,-186.86 -186.86,-186.86 -103.09,0 -186.86,83.76 -186.86,186.86zm1368.12 440.29c-96.65,-103.09 -249.14,-137.46 -386.6,-137.46 -219.07,0 -438.14,107.39 -438.14,351.88 0,397.69 543.38,255.94 543.38,423.46 0,55.85 -73.02,75.17 -146.04,75.17 -96.65,0 -167.52,-40.8 -227.67,-113.82l-195.45 216.92c103.09,105.24 264.18,141.76 410.23,141.76 223.37,0 481.1,-77.32 481.1,-343.65 0,-397.69 -543.38,-266.68 -543.38,-421.32 0,-61.92 64.43,-85.55 118.12,-85.55 77.33,0 139.61,30.07 186.86,87.7l197.6 -195.09zm212.63 747.42c0,109.54 88.06,197.6 197.6,197.6 109.53,0 197.59,-88.06 197.59,-197.6 0,-109.54 -88.06,-197.6 -197.59,-197.6 -109.54,0 -197.6,88.06 -197.6,197.6zm1724.65 -1439l-322.16 0 0 691.58 -4.3 0c-73.03,-100.95 -197.6,-137.46 -330.76,-137.46 -296.39,0 -476.8,266.33 -476.8,556.27 0,315.72 204.04,539.1 513.32,539.1 146.04,0 270.62,-88.06 320.01,-163.24l4.3 0 0 137.46 296.39 0 0 -1623.71zm-296.39 1101.81c0,156.78 -96.65,264.17 -257.73,264.17 -161.08,0 -257.73,-107.39 -257.73,-264.17 0,-156.79 96.65,-264.18 257.73,-264.18 161.08,0 257.73,107.39 257.73,264.18zm515.47 0c0,332.9 257.73,547.68 579.9,547.68 322.17,0 579.9,-214.78 579.9,-547.68 0,-332.91 -257.73,-547.69 -579.9,-547.69 -322.17,0 -579.9,214.78 -579.9,547.69zm322.17 0c0,-156.79 96.65,-264.18 257.73,-264.18 161.08,0 257.73,107.39 257.73,264.18 0,156.78 -96.65,264.17 -257.73,264.17 -161.08,0 -257.73,-107.39 -257.73,-264.17zm2031.78 -521.91l-322.17 0 0 519.76c0,135.3 -25.77,266.32 -193.29,266.32 -165.39,0 -167.53,-154.65 -167.53,-274.91l0 -511.17 -322.16 0 0 575.6c0,279.21 60.13,493.99 386.6,493.99 156.78,0 262.02,-85.91 304.97,-167.52l4.3 0 0 141.75 309.28 0 0 -1043.81zm257.73 1043.81l296.39 0 0 -137.46 4.3 0c49.4,75.18 173.97,163.24 320.02,163.24 309.28,0 513.31,-223.37 513.31,-539.1 0,-289.94 -180.41,-556.27 -476.8,-556.27 -133.16,0 -257.73,36.52 -330.75,137.46l-4.3 0 0 -691.58 -322.17 0 0 1623.71zm296.39 -521.9c0,-156.79 96.65,-264.18 257.74,-264.18 161.08,0 257.73,107.39 257.73,264.18 0,156.78 -96.65,264.17 -257.73,264.17 -161.09,0 -257.74,-107.39 -257.74,-264.17zm1030.94 521.9l322.16 0 0 -1623.71 -322.16 0 0 1623.71zm1316.58 -345.79c-53.7,73.02 -124.57,126.71 -229.82,126.71 -124.57,0 -216.93,-79.47 -242.69,-201.88l747.42 0 0 -100.95c0,-332.91 -189,-547.69 -489.69,-547.69 -322.17,0 -579.9,214.78 -579.9,547.69 0,332.9 257.73,547.68 579.9,547.68 167.52,0 337.19,-75.17 440.29,-206.19l-225.51 -165.38zm-472.51 -294.24c8.59,-100.95 85.91,-197.6 227.66,-197.6 115.98,0 199.74,90.21 197.6,197.6l-425.25 0z"/>
   <path class="fil1" d="M783.1 1303.98c-0.04,78.43 -2.79,166.54 -49.26,212.93 -47.75,47.67 -143.23,37.13 -199.93,4.39 -134.2,-77.48 -190.89,-243.52 -229.54,-287.56 -61.4,39.46 -165.35,198.31 -202.91,279.3 -110.91,239.06 -137.17,549.09 -47.36,802.21 79.87,225.04 239.89,411.84 448.32,522.71 328.03,174.47 738.29,145.28 1026.23,-79.16 67.86,-52.9 128.78,-110.6 182.52,-180.95 114.52,-149.97 185.83,-330.95 196.73,-533.74 15.96,-296.99 -132.38,-538.02 -257.96,-717.17 -192.82,-275.1 -470.66,-564.85 -563.31,-889.49 -56.02,-196.22 -26.3,-271.55 -8.67,-437.45l-89.3 109.95c-271.12,395.96 -206.21,749.43 -205.56,1194.03z"/>
  </g>
 </g>
</svg>
