<?xml version="1.0" encoding="UTF-8"?>
<!DOCTYPE svg PUBLIC "-//W3C//DTD SVG 1.1//EN" "http://www.w3.org/Graphics/SVG/1.1/DTD/svg11.dtd">
<!-- Creator: CorelDRAW -->
<svg xmlns="http://www.w3.org/2000/svg" xml:space="preserve" width="34mm" height="34mm" version="1.1" style="shape-rendering:geometricPrecision; text-rendering:geometricPrecision; image-rendering:optimizeQuality; fill-rule:evenodd; clip-rule:evenodd"
viewBox="0 0 3385.8 3385.8"
 xmlns:xlink="http://www.w3.org/1999/xlink"
 xmlns:xodm="http://www.corel.com/coreldraw/odm/2003">
 <defs>
  <style type="text/css">
   <![CDATA[
    .fil3 {fill:none}
    .fil0 {fill:#FEFEFE}
    .fil2 {fill:#FF2449}
    .fil1 {fill:#FEFEFE;fill-rule:nonzero}
   ]]>
  </style>
 </defs>
 <g id="Camada_x0020_1">
  <metadata id="CorelCorpID_0Corel-Layer"/>
  <g id="_2221156927376">
   <path class="fil0" d="M1522.03 1522c-0.04,78.17 -2.78,166 -49.1,212.24 -47.59,47.51 -142.76,37 -199.28,4.37 -133.77,-77.23 -190.27,-242.73 -228.79,-286.63 -61.2,39.34 -164.81,197.67 -202.25,278.39 -110.55,238.28 -136.73,547.3 -47.2,799.61 79.61,224.31 239.11,410.51 446.87,521.01 326.97,173.9 735.89,144.81 1022.9,-78.9 67.64,-52.73 128.36,-110.24 181.93,-180.36 114.15,-149.48 185.22,-329.88 196.09,-532.01 15.9,-296.03 -131.95,-536.27 -257.12,-714.84 -192.19,-274.21 -469.13,-563.02 -561.49,-886.6 -55.84,-195.58 -26.21,-270.66 -8.64,-436.03l-89.01 109.59c-270.24,394.67 -205.54,747 -204.89,1190.16z"/>
   <path class="fil1" d="M1670.81 1522c-0.02,46.74 -0.9,96.59 -8.94,143.19 -11.24,65.17 -35.38,126.23 -83.92,174.66 -51.63,51.54 -120.41,73.9 -189.92,75.41 -66.34,1.45 -137.04,-17.65 -189.08,-47.7 -3.35,-1.93 -6.58,-3.98 -9.72,-6.13 -70.78,-43.23 -122.56,-99.65 -162.35,-155.18 -20.8,32.69 -38.36,63.78 -48.91,86.57 -48.7,104.96 -78.48,226.22 -85.73,349.07 -6.88,116.73 6.66,233.91 43.78,338.51 33.64,94.8 84.12,181.49 148.05,256.03 63.33,73.84 140.53,136.08 228.21,182.71 138.68,73.75 294.96,104.33 446.98,92.61 150.13,-11.58 295.34,-64.19 414.3,-156.92 29.07,-22.65 56.86,-46.55 83.4,-72.58 25.24,-24.75 49.16,-51.46 71.68,-80.95 49.06,-64.26 88.73,-135.33 117.04,-212.16 27.42,-74.4 44.24,-153.75 48.72,-237 6.6,-122.87 -21.28,-235.35 -63.99,-336.11 -45.26,-106.73 -108.28,-203.19 -166.29,-285.95 -45.44,-64.83 -100.7,-136.6 -156.99,-209.68 -158.4,-205.71 -324.45,-421.34 -408.3,-664.85 -41.57,175.56 -36.89,354.77 -31.77,550.33 1.79,68.68 3.65,139.27 3.76,216.12zm-303.03 93c4.91,-28.41 5.45,-61.6 5.46,-93 -0.1,-69.41 -1.96,-140.22 -3.76,-209.11 -9.79,-373.88 -18.23,-696.22 234.33,-1065.07l0.12 0.08c2.33,-3.41 4.81,-6.74 7.46,-10l84.81 -104.43c30.42,-40.94 81.09,-65.2 135.48,-59.42 81.85,8.69 141.15,82.12 132.45,163.96 -3.23,30.38 -7.44,61.69 -11.36,90.93 -12.54,93.38 -21.44,159.67 15.34,288.5 60.88,213.33 221.79,422.28 374.74,620.91 56.2,72.97 111.43,144.69 165.16,221.35 67.15,95.8 140.66,208.77 196.65,340.8 58.51,138.01 96.61,293.71 87.31,466.82 -6.17,115.1 -29.03,223.68 -66.2,324.51 -38.72,105.08 -93.02,202.33 -160.22,290.35 -31.03,40.63 -64.31,77.76 -99.7,112.46 -34.1,33.43 -70.51,64.69 -109.07,94.74 -167.14,130.28 -368.68,204 -575.35,219.94 -206.94,15.95 -419.91,-25.79 -609.18,-126.45 -119.96,-63.8 -226.36,-149.88 -314.57,-252.72 -87.74,-102.3 -156.91,-220.99 -202.9,-350.57 -50.63,-142.69 -69.25,-300.13 -60.11,-455.2 9.43,-159.9 48.54,-318.43 112.56,-456.44 24.31,-52.43 70.87,-130.66 118.67,-196.44 44.24,-60.9 93.9,-116.35 138.43,-144.97l0.11 0.17c61.02,-39.28 143.23,-28.99 192.44,27.26 21.23,24.19 37.02,52.53 56.36,87.24 29.29,52.58 71.86,128.95 128.93,165.1l6.15 3.37c5.32,3.07 12.02,5.45 19.24,6.8l0.22 -1.46z"/>
   <path class="fil2" d="M1522.03 1522c-0.04,78.17 -2.78,166 -49.1,212.24 -47.59,47.51 -142.76,37 -199.28,4.37 -133.77,-77.23 -190.27,-242.73 -228.79,-286.63 -61.2,39.34 -164.81,197.67 -202.25,278.39 -110.55,238.28 -136.73,547.3 -47.2,799.61 79.61,224.31 239.11,410.51 446.87,521.01 326.97,173.9 735.89,144.81 1022.9,-78.9 67.64,-52.73 128.36,-110.24 181.93,-180.36 114.15,-149.48 185.22,-329.88 196.09,-532.01 15.9,-296.03 -131.95,-536.27 -257.12,-714.84 -192.19,-274.21 -469.13,-563.02 -561.49,-886.6 -55.84,-195.58 -26.21,-270.66 -8.64,-436.03l-89.01 109.59c-270.24,394.67 -205.54,747 -204.89,1190.16z"/>
  </g>
  <rect class="fil3" width="3385.8" height="3385.8"/>
 </g>
</svg>
